<svg xmlns="http://www.w3.org/2000/svg" width="70.071" height="35.045" viewBox="0 0 70.071 35.045"><defs><style>.a{opacity:0.45;}</style></defs><g class="a" transform="translate(0 0)"><g transform="translate(60.083 0.327)"><path d="M305.881,19.819h-.951V18.55h9.828V21.4H313.49v-.951h-4.757V25.21h5.391v1.9h-5.391v5.708h5.074V31.87h.951v2.537h-8.877Z" transform="translate(-304.93 -18.55)"/></g><g transform="translate(43.595 0.327)"><path d="M262.074,18.55h3.806L259.537,34.4h-2.22l-6.026-14.585h-.951V18.55h3.489L258.9,30.915l4.123-11.1h-.951Z" transform="translate(-250.34 -18.55)"/></g><g transform="translate(28.053 0)"><path d="M215.375,25.723c-.317-8.88-8.242-8.245-8.242-8.245s-8.56-.317-8.243,8.56,8.243,8.242,8.243,8.242S215.692,34.6,215.375,25.723Zm-8.242,6.657s-5.391.317-5.074-6.66,5.074-6.343,5.074-6.343,5.391-.634,5.391,6.343S207.133,32.379,207.133,32.379Z" transform="translate(-198.882 -17.467)"/></g><g transform="translate(15.694 0.296)"><path d="M166.523,25.772a3.36,3.36,0,0,0,2.537-3.488c-.634-4.44-4.44-3.806-4.44-3.806h-6.66v1.269h.951V34.331c5.391.317,6.343,0,6.343,0s4.44-.951,4.44-4.44A4.093,4.093,0,0,0,166.523,25.772Zm-4.757-5.708c.951,0,4.44-.951,4.44,2.537s-4.44,2.537-4.44,2.537Zm5.074,9.828c-.317,3.806-5.074,2.854-5.074,2.854V27.04C162.083,27.04,167.157,26.089,166.84,29.891Z" transform="translate(-157.96 -18.446)"/></g><g transform="translate(0 0.487)"><path d="M120.268,33.665,114.56,19.08h-1.586L106,34.931h3.806V33.662h-.634l1.586-4.44h5.074l1.9,5.708h3.806V33.662h-1.272Zm-8.877-6.026,1.9-4.757,1.9,4.757Z" transform="translate(-106 -19.08)"/></g><g transform="translate(16.488 18.558)"><path d="M160.59,78.91h5.388V80.5h-.634v-.634H162.81v2.854h2.851v.951H162.81v3.171h2.534V86.2h.634V87.79h-4.754V79.861h-.634Z" transform="translate(-160.59 -78.91)"/></g><g transform="translate(7.608 18.558)"><path d="M136.9,78.91v.951h.634v2.854H133.41V78.91h-2.22v.951h.634V87.79h2.22v-.634h-.634V83.667h4.123V87.79h2.22v-.634h-.634V78.91Z" transform="translate(-131.19 -78.91)"/></g><g transform="translate(0 18.558)"><path d="M112.66,78.91v1.9h-.951v-.634h-1.586v6.977h.634v.634h-2.22V80.179h-1.9v.634H106v-1.9Z" transform="translate(-106 -78.91)"/></g><g transform="translate(24.096 18.558)"><path d="M185.78,78.91V80.5h.951V95.4h9.2V92.227H194.66V93.5H189.9V78.91Z" transform="translate(-185.78 -78.91)"/></g><g transform="translate(35.19 18.558)"><path d="M236.781,94.078,231.073,78.91h-1.586L222.51,95.4h3.806v-1.32h-.634l1.586-4.615h5.074l1.9,5.935h3.806v-1.32ZM227.9,87.814l1.9-4.947,1.9,4.947Z" transform="translate(-222.51 -78.91)"/></g><g transform="translate(46.927 18.558)"><path d="M261.37,78.91h3.8l3.489,12.048,3.488-10.78h-1.268V78.91h3.488l4.12,12.048,3.488-10.78h-1.268V78.91h3.806L279.123,95.4h-2.217L273.1,83.984,269.3,95.4h-2.22l-4.754-15.219h-.951Z" transform="translate(-261.37 -78.91)"/></g></g></svg>