<svg xmlns="http://www.w3.org/2000/svg" width="62.016" height="15.541" viewBox="0 0 62.016 15.541"><defs><style>.a{opacity:0.45;}</style></defs><g class="a" transform="translate(0 0)"><path d="M155.665,52.328a5.152,5.152,0,0,0-2.576.637c0-2.286,0-4.341.058-5.064l-4.775.868V49.2l.492.058c.637.145.868.492.984,1.36.145,1.707.058,10.823,0,12.328a18.175,18.175,0,0,0,3.994.492c3.791,0,6.048-2.344,6.048-6.048.029-2.923-1.794-5.064-4.225-5.064Zm-1.65,10.331a3.694,3.694,0,0,1-.839-.058c-.058-.984-.145-5.209-.058-8.913a3.146,3.146,0,0,1,1.071-.2c1.563,0,2.431,1.852,2.431,4.138-.029,2.807-1.1,5.035-2.6,5.035ZM130.431,48.189H117.9v.637l.723.058c.926.145,1.273.723,1.418,2.055a84.913,84.913,0,0,1,0,9.405c-.145,1.36-.492,2-1.418,2.055l-.723.145v.579h8.045v-.579l-.839-.145c-.926-.058-1.273-.723-1.418-2.055-.058-.926-.145-2.431-.145-4.283l1.707.058c1.071,0,1.563.839,1.765,2.055h.637V53.167h-.637c-.2,1.215-.724,2.055-1.765,2.055l-1.707.058c0-2.431.058-4.688.145-6.048h2.489c1.91,0,2.923,1.215,3.646,3.357l.723-.2-.116-4.2Z" transform="translate(-117.9 -47.9)"/><path d="M161.656,62.61c3.56,0,5.354,2.431,5.354,5.643a5.313,5.313,0,0,1-5.556,5.614c-3.559,0-5.354-2.431-5.354-5.614a5.32,5.32,0,0,1,5.556-5.643Zm-.231.695c-1.563,0-2,2.141-2,4.92,0,2.691.723,4.92,2.141,4.92,1.65,0,2.055-2.141,2.055-4.92C163.653,65.533,162.93,63.3,161.425,63.3Zm26.595,5.006c0-2.923,1.852-5.7,5.5-5.7,2.981,0,4.428,2.2,4.428,5.122h-6.627c-.058,2.633,1.215,4.572,3.762,4.572a3.764,3.764,0,0,0,2.431-.781l.289.347a5.41,5.41,0,0,1-4.283,2,5.287,5.287,0,0,1-5.5-5.556Zm3.27-1.36,3.357-.058c0-1.418-.2-3.559-1.418-3.559C191.984,63.3,191.348,65.3,191.29,66.951ZM206.4,63.189a8.937,8.937,0,0,0-3.27-.579c-2.633,0-4.283,1.563-4.283,3.415s1.215,2.633,2.923,3.212c1.765.637,2.286,1.129,2.286,2a1.643,1.643,0,0,1-1.765,1.65c-1.36,0-2.344-.781-3.125-2.923l-.492.145.058,3.125a11.572,11.572,0,0,0,3.762.637c2.778,0,4.572-1.418,4.572-3.646,0-1.5-.781-2.344-2.633-3.068-2-.781-2.72-1.273-2.72-2.2a1.475,1.475,0,0,1,1.5-1.563c1.273,0,2.141.781,2.778,2.691l.492-.145-.087-2.749ZM176.242,62.9c-1.215-.723-3.357-.347-4.486,2.2l.058-2.489-4.746.926v.434l.492.058c.637.058.926.434.984,1.36.145,1.707.058,4.688,0,6.193-.058.839-.347,1.273-.984,1.36l-.492.058v.579h6.627V73l-.839-.058c-.723-.058-.926-.492-.984-1.36a47.007,47.007,0,0,1-.058-5.759,2.786,2.786,0,0,1,3.357,0l1.071-2.923Z" transform="translate(-145.045 -58.327)"/></g></svg>