<svg xmlns="http://www.w3.org/2000/svg" width="85.087" height="9.952" viewBox="0 0 85.087 9.952"><defs><style>.a{opacity:0.45;}.b{fill:#444;}</style></defs><g class="a" transform="translate(0 0)"><g transform="translate(0)"><path d="M82.262,514.685h3.107l1.666-9.535H83.928l-.614,3.416H80.62l.614-3.416H78.126l-1.666,9.535h3.107l.626-3.57h2.695Z" transform="translate(-71.262 -504.934)"/><path d="M131.913,505.05l-.945,5.307a6.08,6.08,0,0,0-.118,1.194c0,2.813,2.458,3.238,3.934,3.238,3.1,0,4.431-1.028,4.914-3.806l1.04-5.943h-3.107l-.887,4.987c-.284,1.559-.485,2.375-1.642,2.375-.757,0-1.123-.4-1.123-1.229a6.513,6.513,0,0,1,.141-1.194l.9-4.94h-3.107v.01Z" transform="translate(-114.378 -504.847)"/><path d="M257.8,514.638h3.107l.437-2.458h1.465c2.7,0,4.206-1.466,4.206-4.135,0-1.878-1.3-2.954-3.579-2.954h-3.969Zm4.844-4.809h-.9l.415-2.245H263c.686,0,1.051.342,1.051.968A1.244,1.244,0,0,1,262.644,509.828Z" transform="translate(-215.015 -504.887)"/><path d="M310.749,504.12c-3.379,0-5.4,2.187-5.4,5.862,0,2.552,1.606,4.088,4.3,4.088,3.378,0,5.4-2.187,5.4-5.862.013-2.564-1.6-4.088-4.3-4.088Zm-.91,7.479c-.8,0-1.277-.578-1.277-1.548a5.306,5.306,0,0,1,.106-1.051c.236-1.252.638-2.4,1.9-2.4.8,0,1.277.578,1.277,1.549a5.3,5.3,0,0,1-.106,1.051C311.506,510.442,311.1,511.6,309.84,511.6Z" transform="translate(-252.709 -504.118)"/><path d="M399.427,514.685h3.107l1.229-6.984h2.34l.45-2.552H398.6l-.45,2.552h2.481Z" transform="translate(-326.275 -504.934)"/><path d="M358.356,507.845c-.98-.307-1.382-.437-1.382-.9,0-.307.2-.674.792-.674a.992.992,0,0,1,.945.614l2.742-.744c-.319-1.347-1.478-2.034-3.474-2.034-3.758,0-4.052,2.517-4.052,3.286,0,1.559.827,2.516,2.624,3.014.472.13,1.016.271,1.016.792,0,.414-.307.674-.839.674a1.254,1.254,0,0,1-1.181-.779l-2.7.732c.3,1.418,1.631,2.222,3.723,2.222,1.6,0,4.266-.425,4.266-3.308.01-1.441-.806-2.388-2.473-2.9Z" transform="translate(-290.356 -504.11)"/><path class="b" d="M54.841,514.685l1.679-9.535H51.38v9.535Z" transform="translate(-51.38 -504.934)"/><path class="b" d="M438.757,505.15l-1.666,9.535h5.14V505.15Z" transform="translate(-357.143 -504.934)"/><path d="M182.674,511.825h2.612l.425-2.4H183.1l.3-1.772h3.65l.45-2.564h-6.759l-1.666,9.548h3.109Z" transform="translate(-152.604 -504.887)"/><path d="M222,511.825h2.624l.425-2.4h-2.612l.294-1.772h3.652l.45-2.564h-6.759l-1.666,9.548h3.107Z" transform="translate(-183.79 -504.887)"/></g></g></svg>