<svg xmlns="http://www.w3.org/2000/svg" width="85.087" height="11.241" viewBox="0 0 85.087 11.241"><defs><style>.a{opacity:0.45;}</style></defs><g class="a" transform="translate(0 0)"><path d="M382.433,62.211c-.285.291-.667.73-1,1.141-.491-.386-.968-.727-1.249-.944V54.833a.612.612,0,0,0-.344-.618v-.042l1.7-1.283.027.028V61.8a1.923,1.923,0,0,0,.851.379Z" transform="translate(-302.267 -52.358)"/><path d="M340.08,66.943a1.454,1.454,0,0,1-1.274.989,1.421,1.421,0,0,1-1.165-.55l-.125.122V71.7c.634.36.876.491,1.07.491.163,0,.29-.081.48-.274l.1.1c-.487.48-.939.955-1.331,1.385-.568-.412-1.12-.792-1.7-1.179V67.8a2.088,2.088,0,0,0-.781-.507l-.014-.027.932-1.041c.462.382.8.677,1.29,1.027.407-.364.692-.64,1.057-1.014a2.032,2.032,0,0,0,1.453.658Z" transform="translate(-267.836 -62.404)"/><path d="M278.893,51.845c-.364.826-.815,1.315-1.412,1.315-.283,0-.858-.287-1.26-.287a1.082,1.082,0,0,0-1.057.6l-.054-.054c.115-1.14.8-1.672,1.591-1.672.493,0,.982.3,1.412.3a1.166,1.166,0,0,0,.754-.26Z" transform="translate(-221.234 -51.476)"/><path d="M284.672,51.194a1.862,1.862,0,0,1-.919,1.209v7.72a2.477,2.477,0,0,1,.905.409l-1.1,1.2a2,2,0,0,0-1.385-.548,2.637,2.637,0,0,0-1.55.492l-.014-.056a2,2,0,0,1,1.6-1.618V56.609h-2.55v3.656a.514.514,0,0,0,.233.072c.136,0,.319-.188.452-.381l.109.1c-.33.411-.912,1.093-1.33,1.674a3.12,3.12,0,0,0-1.987-.606,3.288,3.288,0,0,0-1.767.464l-.027-.07a2.473,2.473,0,0,1,2.493-1.7,3.82,3.82,0,0,1,1.645.381V50.857h.179v4.429h2.55V52.475a2.1,2.1,0,0,1-1.054-.548c.337-.337.738-.778,1.054-1.137a2.083,2.083,0,0,0,1.412.548,2.59,2.59,0,0,0,1.014-.2Z" transform="translate(-221.42 -50.733)"/><path d="M280.378,57.887a3.106,3.106,0,0,0-.206,1.48v3.181a2.331,2.331,0,0,1-1.769,2.165l-.066-.041a1.07,1.07,0,0,0,.315-.794V61.931H278.3c-.548,0-.751.274-.808.577h-.041a.963.963,0,0,1-.328-.8,1.1,1.1,0,0,1,1.206-1.068h.328v-.7a2.072,2.072,0,0,1,1.686-2.084Z" transform="translate(-222.789 -56.093)"/><path d="M260.086,55.487c-.226.233-.457.5-.767.864-.258-.226-.6-.471-.959-.74.251-.265.511-.543.8-.891.3.26.618.525.93.767" transform="translate(-208.274 -53.774)"/><path d="M260.035,72.328s-.36.41-.96,1.125c-.378-.3-.864-.654-1.249-.919V67.682a1.336,1.336,0,0,0-.561-.328l-.016-.027.919-1.027c.36.278.67.5,1.041.767v4.881a2.364,2.364,0,0,0,.808.355Z" transform="translate(-207.415 -62.458)"/><path d="M225.873,72.252s-.269.29-.959,1.138c-.414-.326-.806-.613-1.247-.919v-4.62l-1.1-.672-.561.453v4.593c.2.122.4.247.4.247-.253.238-.733.692-.959.919-.346-.278-.824-.645-.824-.645V67.811l-.973-.672-.686.548v4.539a4.35,4.35,0,0,0,.385.231c-.323.305-.661.629-.946.934-.29-.235-.613-.493-.824-.645V67.811c-.453-.4-.6-.484-.835-.509l-.014-.027c.326-.326.688-.7.973-1.041.432.342.907.726,1.412,1.111.4-.314.86-.667,1.4-1.1.441.319,1.043.74,1.536,1.1.468-.371.905-.724,1.358-1.125.4.276,1.278.806,1.643,1.041v4.62a2.028,2.028,0,0,0,.808.344Z" transform="translate(-176.063 -62.396)"/><path d="M183.926,55.487c-.226.233-.457.5-.767.864-.258-.226-.6-.471-.959-.74.249-.265.514-.543.794-.891.3.26.62.525.932.767" transform="translate(-149.346 -53.774)"/><path d="M183.891,72.328s-.36.41-.959,1.125c-.378-.3-.864-.654-1.247-.919V67.682a1.336,1.336,0,0,0-.561-.328l-.014-.027.919-1.027c.36.278.67.5,1.041.767v4.881a2.365,2.365,0,0,0,.808.355Z" transform="translate(-148.503 -62.458)"/><path d="M128.82,51.665c-.364.826-.828,1.315-1.425,1.315-.285,0-.858-.287-1.26-.287a1.085,1.085,0,0,0-1.057.6l-.068-.041a1.638,1.638,0,0,1,1.6-1.686c.493,0,.982.3,1.412.3a1.223,1.223,0,0,0,.713-.247Z" transform="translate(-105.096 -51.337)"/><path d="M79.576,62.187c-.283.288-.609.69-.973,1.127-.434-.342-.962-.744-1.249-.943V57.822c-.36-.293-.742-.567-1.125-.846-.2.181-.355.325-.534.493v4.648a2.649,2.649,0,0,0,.371.237l-.932.96c-.358-.3-.665-.523-.837-.662V54.811a.725.725,0,0,0-.287-.69v-.042l1.659-1.239.027.014v4.378l1.4-1.267a17.741,17.741,0,0,0,1.645,1.127v4.676a2.29,2.29,0,0,0,.81.393Z" transform="translate(-65.636 -52.32)"/><path d="M396.833,61.313a12.784,12.784,0,0,0-2.6,2c-.577-.455-1.29-.948-1.851-1.339V57.2c.609-.339,1.281-.716,2.057-1.183l-1.577-1.634a2.074,2.074,0,0,0-.753-.562l-.014-.028c.477-.353.871-.672,1.192-.957.609.644,1.973,2.08,3.55,3.732v4.741Zm-1.385.706V57.062l-.919-.916c-.308.2-.534.321-.767.465v4.648a14.387,14.387,0,0,0,1.439.957Z" transform="translate(-311.746 -52.32)"/><path d="M360.289,72.425l-.864,1.014c-.462-.358-.817-.627-1.41-1.068-.6.344-.914.57-1.729,1.084a2.292,2.292,0,0,1-1.206-2.07,1.914,1.914,0,0,1,1.453-1.781,5.417,5.417,0,0,0-.971-.588v-1.5a16.088,16.088,0,0,0,2.1-1.22c.638.425,1.118.731,1.905,1.26v4.482a1.487,1.487,0,0,0,.713.355Zm-2.111-2.84V68.146c-.525-.378-.885-.634-1.493-1.041l-.084.054v2.426a3.4,3.4,0,0,1,.726-.111A3.249,3.249,0,0,1,358.178,69.585Zm0,2.482V69.791a2.647,2.647,0,0,0-.794-.111c-.688,0-.919.534-.919,1.247a1.881,1.881,0,0,0,.783,1.686Z" transform="translate(-283.11 -62.458)"/><path d="M322.434,68.42l-2.439,1.509V71.7c.645.394.878.548,1.082.548.185,0,.33-.167.658-.493l.109.111c-.518.5-1.041,1.007-1.548,1.577-.534-.389-1.154-.828-1.686-1.179V67.9c.711-.423,1.876-1.2,2.455-1.618.376.636.828,1.326,1.369,2.14M321.185,69c-.36-.591-.792-1.346-1.084-1.864l-.109.068v2.536Z" transform="translate(-254.892 -62.443)"/><path d="M199.4,72.425l-.864,1.014c-.464-.358-.817-.627-1.412-1.068-.6.344-.914.57-1.729,1.084a2.3,2.3,0,0,1-1.206-2.07,1.914,1.914,0,0,1,1.453-1.781,5.349,5.349,0,0,0-.973-.588v-1.5a16.082,16.082,0,0,0,2.1-1.22c.638.425,1.118.731,1.905,1.26v4.482a1.488,1.488,0,0,0,.713.355Zm-2.111-2.84V68.146c-.525-.378-.9-.634-1.509-1.041l-.068.054v2.426a3.4,3.4,0,0,1,.726-.111A3.251,3.251,0,0,1,197.29,69.585Zm0,2.482V69.791a2.664,2.664,0,0,0-.8-.111c-.688,0-.919.534-.919,1.247a1.879,1.879,0,0,0,.781,1.686Z" transform="translate(-158.623 -62.458)"/><path d="M135.545,60.291s-.772.742-1.26,1.239c-.441-.411-1.072-.914-1.6-1.336-.4.309-1.4,1.056-1.74,1.348a3.211,3.211,0,0,0-1.975-.633,2.288,2.288,0,0,0-1.371.45l-.027-.07a2.737,2.737,0,0,1,1.315-1.489V56.412h-1.81v3.612a1.437,1.437,0,0,1-1.577,1.533c-.686,0-1.326-.35-1.987-.35a1.32,1.32,0,0,0-1.206.5l-.081-.028c.054-1.088.618-1.759,1.659-1.759.672,0,1.405.339,2.125.339.638,0,.891-.22.891-.886V51.958c-.314.181-.441.269-.658.394v5.255c0,1.132-.946,1.694-2.03,1.8l-.014-.028a1.452,1.452,0,0,0,.507-1.237V56.414h-.233a.717.717,0,0,0-.808.605l-.041-.014a1,1,0,0,1-.344-.817,1.118,1.118,0,0,1,1.22-1.1h.206v-.786a2.45,2.45,0,0,1,1.5-2.123l2.769-1.645c.539.4,1.222.912,1.783,1.292l2.138-1.25a1.791,1.791,0,0,0,1.466.775,2.5,2.5,0,0,0,.878-.142l.027.042a1.621,1.621,0,0,1-.781,1.195v7.3a2.483,2.483,0,0,0,1.057.52Zm-2.591-5.2V52.408a2.332,2.332,0,0,1-1.344-.9l-.4.253v3.331h1.742Zm-1.919,4.821V51.846l-.631.378v7.491A3.988,3.988,0,0,1,131.035,59.913Zm-2.168-4.821V52.38s-.787-.582-1.192-.886l-.6.367v3.232Zm4.086,4.682V56.414h-1.742v3.556a1.979,1.979,0,0,0,.905.38.772.772,0,0,0,.412-.225S132.8,59.9,132.954,59.773Z" transform="translate(-102.938 -50.54)"/><path d="M104.572,68.42l-2.439,1.509V71.7c.645.394.878.548,1.084.548.186,0,.33-.167.658-.493l.109.111c-.518.5-1.027,1.007-1.534,1.577-.534-.389-1.17-.828-1.7-1.179V67.9c.708-.423,1.873-1.2,2.453-1.618.378.636.828,1.326,1.369,2.14M103.323,69c-.36-.591-.794-1.346-1.084-1.864l-.111.068v2.536Z" transform="translate(-86.326 -62.443)"/><path d="M45.141,58.925a3.818,3.818,0,0,1-3.96,2.895c-2.5,0-4.046-1.793-4.046-4.315a4.579,4.579,0,0,1,3.084-4.217l.068.042a6,6,0,0,0-1.328,2.053L41.6,54.188v3.329a.84.84,0,0,0,.152.436v.028c-.6.341-1.837,1.037-2.358,1.32a3.157,3.157,0,0,0,2.631,1.267,3.45,3.45,0,0,0,.891-.114v-7.01a11.63,11.63,0,0,1-2.03-.492,9.018,9.018,0,0,0-2.152-.45c-.751,0-1.274.209-1.274.886a1.221,1.221,0,0,0,.192.633l-.081.014A1.5,1.5,0,0,1,37,52.854c0-1.376,1.147-1.884,2.371-1.884a8.355,8.355,0,0,1,2.041.464,8.681,8.681,0,0,0,2.057.492c.5,0,.74-.232.74-.605a.756.756,0,0,0-.33-.675l.084-.056a1.435,1.435,0,0,1,1,1.392c0,.926-.523,1.461-1.864,1.461v6.968a4.127,4.127,0,0,0,2-1.543Zm-5.043-.2V55.074c-.382.176-.826.362-1.22.547a4.894,4.894,0,0,0-.136,1.209,4.159,4.159,0,0,0,.577,2.334C39.577,59.02,39.9,58.846,40.1,58.727Z" transform="translate(-37 -50.579)"/></g></svg>