<?xml version="1.0" encoding="utf-8"?>
<!-- Generator: Adobe Illustrator 23.0.3, SVG Export Plug-In . SVG Version: 6.00 Build 0)  -->
<svg version="1.1" id="Layer_1" xmlns="http://www.w3.org/2000/svg" xmlns:xlink="http://www.w3.org/1999/xlink" x="0px" y="0px"
	 viewBox="0 0 301.3 62" style="enable-background:new 0 0 301.3 62;" xml:space="preserve">
<style type="text/css">
	.st0{fill:#FFFFFF;}
</style>
<path d="M33.4,32c0-7.9,4.3-13.5,11.8-15c6.8-1.3,13.7,0.8,17,6.9c3.8,7,1.8,17.3-4.5,21.5c-5.1,3.4-10.6,3.5-16,1
	c-5.4-2.5-7.8-7.1-8.4-12.7C33.4,33.1,33.4,32.6,33.4,32z M43.9,31.8c-0.1,1.8,0.3,3.2,1.1,4.6c1.7,3.1,5.6,3.2,7.7,0.4
	c1.9-2.7,1.9-7,0-9.6c-1.9-2.5-5.7-2.6-7.4,0C44.3,28.4,43.9,30.1,43.9,31.8z"/>
<path d="M108.5,38.7c0,3,0,6.5,0,9.5c-3.3,0-6.5,0-9.7,0c0-10.2,0-20.9,0-31.2c2.5-0.2,4.9-0.4,7.3-0.4c3.2,0,6.4-0.1,9.6,0.3
	c3.8,0.6,6.7,2.7,7.8,6.7c1.2,4.3,0.1,8.1-2.9,11.3c-0.4,0.4-0.8,0.8-1.3,1.3c2.3,3.2,4.5,6.4,6.8,9.7c-3,1-6,1.5-8.9,2.4
	c-0.3,0.1-0.9,0-1.2-0.2c-1.7-2.8-3.4-5.5-5-8.3C110.4,38.6,109.7,38.3,108.5,38.7z M108.6,30.9c1.6-0.3,2.9-0.5,4.2-1
	c1.2-0.4,1.6-1.5,1.5-2.7c-0.1-1.3-0.8-2.2-2-2.3c-1.2-0.1-2.5,0-3.7,0C108.6,26.8,108.6,28.7,108.6,30.9z"/>
<path d="M67.6,16.6c3.3,0,6.6,0,10,0c0,0.6,0,1.1,0,1.6c0,5.2-0.1,10.4-0.1,15.7c0,0.8,0,1.6,0.2,2.3c0.3,1.7,1.4,2.7,2.9,2.8
	c1.4,0.1,2.8-0.7,3.3-2.2C84,36,84.1,35,84.1,34c0-5.3,0-10.5,0-15.8c0-0.5,0-0.9,0-1.6c3.4,0,6.7,0,10.1,0c0,0.3,0,0.6,0,1
	c0.1,5.2,0.2,10.4,0.3,15.6c0.1,3.6-0.4,7.1-2.6,10.1c-2.4,3.3-5.8,4.5-9.6,4.7c-4.1,0.3-8-0.2-11.2-3.2c-2.4-2.2-3.6-5-3.6-8.2
	c-0.1-6.6,0.1-13.1,0.1-19.7C67.5,17,67.5,16.8,67.6,16.6z"/>
<path d="M31.4,37.6c0,3,0,5.8,0,8.5c0,0.3-0.3,0.8-0.5,0.9c-6.6,2-13,1.7-18.6-2.8c-4.6-3.8-5.5-9-4.6-14.6
	c1.2-7.1,6.4-11.9,13.6-12.8c3.3-0.4,6.5-0.2,9.9,0.7c-0.3,2.9-0.5,5.8-0.8,8.8c-1.1-0.2-2.2-0.5-3.3-0.6c-1.4,0-2.8-0.1-4.1,0.3
	c-3,0.8-4.7,3.3-4.6,6.6c0.1,3,2,5.2,5,5.9c2.3,0.6,4.4,0.2,6.6-0.4C30.3,38,30.6,37.9,31.4,37.6z"/>
<path d="M126.1,25.9c0-3,0-6,0-9.3c9.8,0,19.4,0,29.3,0c0,2.8,0,5.8,0,8.9c-2.7,0-5.5,0-8.3,0c0,7.6,0,15,0,22.7c-4,0-8,0-12.1,0
	c0-7.3,0-14.8,0-22.3C132.1,25.9,129.2,25.9,126.1,25.9z"/>
<path d="M166.9,32.1c2.8,1,4.6,2.6,5.2,5.5c0.8,4.2-1.4,8.1-5.4,9.6c-1.4,0.5-2.9,1-4.4,1c-5.2,0.1-10.4,0-15.5,0
	c0-10.5,0-21.2,0-31.5c5.9-0.2,11.4-0.2,17.1-0.1c3.8,0.1,6.4,3.7,7,7.7C171.3,27.8,170.2,30.4,166.9,32.1z M156.5,35.5
	c0,2,0,3.7,0,5.6c1.5-0.1,2.9-0.2,4.2-0.4c1.2-0.3,1.7-1.2,1.7-2.4c0-1.2-0.6-2.1-1.8-2.4C159.3,35.6,157.9,35.6,156.5,35.5z
	 M156.3,29.4c1.4-0.2,2.7-0.2,3.9-0.5c1.1-0.3,1.7-1.1,1.7-2.3c0-1.2-0.7-1.9-1.7-2.1c-1.3-0.2-2.5,0-3.8,0
	C156.3,26.2,156.3,27.7,156.3,29.4z"/>
<path d="M166.9,32.1c2.8,1,4.6,2.6,5.2,5.5c0.8,4.2-1.4,8.1-5.4,9.6c-1.4,0.5-2.9,1-4.4,1c-5.2,0.1-10.4,0-15.5,0
	c0-10.5,0-21.2,0-31.5c5.9-0.2,11.4-0.2,17.1-0.1c3.8,0.1,6.4,3.7,7,7.7C171.3,27.8,170.2,30.4,166.9,32.1z M156.5,35.5
	c0,2,0,3.7,0,5.6c1.5-0.1,2.9-0.2,4.2-0.4c1.2-0.3,1.7-1.2,1.7-2.4c0-1.2-0.6-2.1-1.8-2.4C159.3,35.6,157.9,35.6,156.5,35.5z
	 M156.3,29.4c1.4-0.2,2.7-0.2,3.9-0.5c1.1-0.3,1.7-1.1,1.7-2.3c0-1.2-0.7-1.9-1.7-2.1c-1.3-0.2-2.5,0-3.8,0
	C156.3,26.2,156.3,27.7,156.3,29.4z"/>
<path d="M206.9,47.9c-0.2-10.1-0.3-20.2-0.5-30.4c6.5-0.9,13-1.9,19.3,0.8c5.3,2.3,7.9,6.5,8.3,12.2c0.2,2.9,0,5.9-1.2,8.6
	c-1.9,4.6-5.6,6.9-10.2,8.1C218.5,48.3,212.5,48.5,206.9,47.9z M216.6,26c0,4.1,0,8.2,0,12.2c0,0.3,0.6,0.8,0.9,0.8
	c2.4,0,4.5-0.7,5.6-3c1.3-2.7,1.3-5.6-0.5-8.1C221.2,25.8,219,25.7,216.6,26z"/>
<path d="M237.1,17.6c6.1-0.8,12.1-1.7,18,0.2c6,2,9.4,6.8,9.6,13.3c0.1,4.2-0.5,8.2-3.3,11.5c-1.9,2.2-4.4,3.5-7.2,4.4
	c-5.4,1.6-11,1.3-16.6,1C237.4,37.8,237.3,27.8,237.1,17.6z M247.2,26.1c0,4,0,8,0,12c0,0.9,0.6,0.9,1.2,0.9
	c3.5-0.1,5.8-2.1,6.2-5.5C255.2,28.1,252,25,247.2,26.1z"/>
<path d="M175.5,16.6c3.3,0,6.6,0,9.9,0c0,4.3,0,8.6,0,12.7c0,1.8,0,3.5,0,5.3c0,0.5,0.1,1,0.1,1.5c0.3,1.7,1.4,2.8,2.9,2.9
	c1.4,0.1,2.8-0.8,3.3-2.3c0.3-0.9,0.3-1.8,0.3-2.7c0-5.3,0-10.5,0-15.8c0-0.5,0-0.9,0-1.6c3.4,0,6.7,0,10.1,0c0,0.3,0,0.6,0,1
	c0.1,5.3,0.2,10.5,0.3,15.8c0,3.6-0.4,7.1-2.7,10.1c-2.4,3.3-5.9,4.4-9.6,4.7c-4.1,0.3-8-0.3-11.2-3.2c-2.4-2.2-3.6-5.1-3.6-8.2
	c-0.1-6.5,0.1-13,0.1-19.5C175.5,17.1,175.4,16.8,175.5,16.6z"/>
<path d="M263.3,18.4c3.6-0.6,6.9-1.2,10.4-1.9c1.6,3.2,3.3,6.4,5.1,9.9c1.7-3.4,3.3-6.6,4.9-9.9c3.4,0.7,6.6,1.3,10.1,2
	c-0.3,0.5-0.5,0.9-0.7,1.3c-2.9,5.1-5.9,10.1-8.7,15.3c-0.4,0.7-0.6,1.6-0.6,2.4c-0.1,3.4-0.2,7-0.2,10.6c-3.3,0.1-6.7-0.1-10,0
	c0-3.6,0.1-7,0-10.4c0-0.8-0.2-1.6-0.6-2.3C269.9,29.9,266.7,24.3,263.3,18.4z"/>
<g>
	<path class="st0" d="M147,46.3c2.1,0,4.2,0,6.2,0c0.5,0,0.8,0.2,0.9,0.6c0,0.1,0,0.3,0,0.4c0,0.1,0,0.3,0,0.4
		c0,0.3-0.3,0.6-0.7,0.7c-0.1,0-0.1,0-0.2,0c-4.1,0-8.2,0-12.4,0c-0.6,0-0.9-0.3-0.9-0.8c0-0.2,0-0.4,0-0.5c0-0.5,0.3-0.7,0.9-0.7
		C142.8,46.3,144.9,46.3,147,46.3z"/>
	<path class="st0" d="M147,18.6c-2.1,0-4.1,0-6.2,0c-0.5,0-0.9-0.3-0.9-0.8c0-0.2,0-0.4,0-0.6c0-0.4,0.3-0.7,0.8-0.7
		c0,0,0.1,0,0.1,0c4.1,0,8.3,0,12.4,0c0.2,0,0.4,0,0.6,0.2c0.2,0.1,0.3,0.3,0.3,0.5c0,0.2,0,0.5,0,0.7c0,0.4-0.3,0.7-0.8,0.7
		c-0.8,0-1.6,0-2.4,0C149.6,18.6,148.3,18.6,147,18.6z"/>
	<path class="st0" d="M144.3,32.5c0,3.5,0,7.1,0,10.6c0,0.2,0,0.3-0.2,0.3c-0.2,0.1-0.5,0-0.6-0.1c0,0,0-0.1,0-0.1c0,0,0-0.1,0-0.1
		c0-7.1,0-14.1,0-21.2c0-0.1,0-0.3,0.2-0.3c0.2-0.1,0.4-0.1,0.6,0.1c0,0,0.1,0.1,0.1,0.1c0,0,0,0.1,0,0.1
		C144.3,25.5,144.3,29,144.3,32.5z"/>
	<path class="st0" d="M147,20.5c-1.8,0-3.6,0-5.4,0c-0.1,0-0.3,0-0.4-0.1c-0.2-0.1-0.4-0.2-0.4-0.5c0-0.1,0-0.2,0-0.2
		c0-0.3,0.2-0.5,0.6-0.6c0.1,0,0.1,0,0.2,0c3.5,0,7.1,0,10.6,0c0.2,0,0.4,0,0.5,0.1c0.2,0.1,0.3,0.2,0.3,0.4c0,0.1,0,0.2,0,0.3
		c0,0.3-0.2,0.5-0.6,0.6c-0.1,0-0.1,0-0.2,0C150.6,20.5,148.8,20.5,147,20.5z"/>
	<path class="st0" d="M147,45.7c-1.8,0-3.5,0-5.3,0c-0.1,0-0.2,0-0.3,0c-0.3,0-0.5-0.2-0.5-0.5c0-0.1,0-0.1,0-0.2
		c0-0.4,0.2-0.6,0.7-0.6c0,0,0.1,0,0.1,0c3.6,0,7.1,0,10.7,0c0.2,0,0.4,0,0.5,0.1c0.2,0.1,0.3,0.2,0.3,0.4c0,0.1,0,0.2,0,0.3
		c0,0.3-0.2,0.5-0.5,0.5c-0.1,0-0.2,0-0.3,0C150.5,45.7,148.7,45.7,147,45.7z"/>
	<path class="st0" d="M151.4,32.6c0-3.5,0-7.1,0-10.6c0-0.1,0-0.1,0-0.2c0-0.1,0.1-0.2,0.2-0.2c0.1,0,0.2,0.1,0.2,0.2
		c0,0,0,0.1,0,0.1c0,7.1,0,14.2,0,21.3c0,0,0,0.1,0,0.1c0,0.1-0.1,0.2-0.2,0.2c-0.1,0-0.2-0.1-0.2-0.2c0-0.1,0-0.1,0-0.2
		C151.4,39.6,151.4,36.1,151.4,32.6z"/>
	<path class="st0" d="M142.1,32.5c0-3.5,0-7.1,0-10.6c0-0.2,0.1-0.3,0.2-0.3c0.2,0,0.3,0.1,0.3,0.3c0,7.1,0,14.2,0,21.2
		c0,0.1,0,0.1,0,0.2c0,0.1-0.1,0.2-0.2,0.2c-0.1,0-0.2-0.1-0.2-0.2c0-0.1,0-0.1,0-0.2C142.1,39.6,142.1,36.1,142.1,32.5z"/>
	<path class="st0" d="M146.7,32.5c0-3.5,0-7.1,0-10.6c0,0,0-0.1,0-0.1c0-0.1,0.1-0.2,0.2-0.2c0.1,0,0.2,0.1,0.2,0.2c0,0,0,0.1,0,0.1
		c0,7.1,0,14.1,0,21.2c0,0.1,0,0.1,0,0.2c0,0.1-0.1,0.2-0.3,0.2c-0.1,0-0.2-0.1-0.2-0.2c0,0,0-0.1,0-0.1
		C146.7,39.6,146.7,36.1,146.7,32.5z"/>
	<path class="st0" d="M149.9,32.5c0-3.5,0-7.1,0-10.6c0-0.2,0.1-0.3,0.3-0.3c0.2,0,0.2,0.1,0.2,0.3c0,7.1,0,14.2,0,21.2
		c0,0.1,0,0.1,0,0.2c0,0.1-0.1,0.2-0.3,0.2c-0.1,0-0.2-0.1-0.2-0.2c0,0,0-0.1,0-0.2C149.9,39.6,149.9,36.1,149.9,32.5z"/>
	<path class="st0" d="M148.9,32.5c0,3.5,0,7.1,0,10.6c0,0.1,0,0.1,0,0.2c0,0.1-0.1,0.2-0.2,0.2c-0.1,0-0.2-0.1-0.2-0.2
		c0,0,0-0.1,0-0.1c0-7.1,0-14.2,0-21.3c0,0,0-0.1,0-0.1c0-0.1,0.1-0.2,0.2-0.2c0.1,0,0.2,0.1,0.2,0.2c0,0.1,0,0.1,0,0.2
		C148.9,25.5,148.9,29,148.9,32.5z"/>
	<path class="st0" d="M145.2,32.5c0-3.5,0-7.1,0-10.6c0-0.1,0-0.1,0-0.2c0-0.1,0.1-0.2,0.2-0.2c0.1,0,0.2,0.1,0.2,0.2
		c0,0,0,0.1,0,0.1c0,7.1,0,14.2-0.1,21.3c0,0,0,0.1,0,0.1c0,0.1-0.1,0.2-0.2,0.2c-0.1,0-0.2-0.1-0.2-0.2c0-0.1,0-0.1,0-0.2
		C145.1,39.6,145.2,36.1,145.2,32.5z"/>
</g>
</svg>
