<svg xmlns="http://www.w3.org/2000/svg" width="73.99" height="37.006" viewBox="0 0 73.99 37.006"><defs><style>.a{opacity:0.45;}</style></defs><g class="a" transform="translate(-106 -17.467)"><g transform="translate(169.444 17.813)"><path d="M305.935,19.889h-1V18.55h10.378v3.014h-1.34v-1h-5.023v5.023h5.693v2.009h-5.693v6.028H314.3v-1h1v2.679h-9.373Z" transform="translate(-304.93 -18.55)"/></g><g transform="translate(152.034 17.813)"><path d="M262.73,18.55h4.018l-6.7,16.74h-2.344l-6.363-15.4h-1V18.55h3.684l5.358,13.057,4.353-11.717h-1Z" transform="translate(-250.34 -18.55)"/></g><g transform="translate(135.622 17.467)"><path d="M216.3,26.184c-.335-9.376-8.7-8.707-8.7-8.707s-9.038-.335-8.7,9.038,8.7,8.7,8.7,8.7S216.632,35.558,216.3,26.184Zm-8.7,7.029s-5.693.335-5.358-7.032,5.358-6.7,5.358-6.7,5.693-.67,5.693,6.7S207.594,33.213,207.594,33.213Z" transform="translate(-198.882 -17.467)"/></g><g transform="translate(122.571 17.779)"><path d="M167,26.181A3.548,3.548,0,0,0,169.68,22.5c-.67-4.688-4.688-4.018-4.688-4.018H157.96v1.339h1v15.4c5.693.335,6.7,0,6.7,0s4.688-1,4.688-4.688A4.322,4.322,0,0,0,167,26.181Zm-5.023-6.028c1,0,4.688-1,4.688,2.679s-4.688,2.679-4.688,2.679Zm5.358,10.378c-.335,4.018-5.358,3.014-5.358,3.014V27.521C162.313,27.521,167.671,26.516,167.336,30.532Z" transform="translate(-157.96 -18.446)"/></g><g transform="translate(106 17.982)"><path d="M121.066,34.481l-6.028-15.4h-1.674L106,35.817h4.018V34.478h-.67l1.674-4.688h5.358l2.009,6.028h4.018V34.478h-1.343Zm-9.373-6.363L113.7,23.1l2.009,5.023Z" transform="translate(-106 -19.08)"/></g><g transform="translate(123.41 37.063)"><path d="M160.59,78.91h5.69v1.674h-.67v-.67h-2.676v3.014h3.011v1h-3.011v3.349h2.676v-.67h.67v1.674h-5.02V79.915h-.67Z" transform="translate(-160.59 -78.91)"/></g><g transform="translate(114.034 37.063)"><path d="M137.218,78.91v1h.67v3.014h-4.353V78.91H131.19v1h.67v8.372H134.2v-.67h-.67V83.933h4.353v4.353h2.344v-.67h-.67V78.91Z" transform="translate(-131.19 -78.91)"/></g><g transform="translate(106 37.063)"><path d="M113.032,78.91v2.009h-1v-.67h-1.674v7.367h.67v.67h-2.344V80.249H106.67v.67H106V78.91Z" transform="translate(-106 -78.91)"/></g><g transform="translate(131.444 37.063)"><path d="M185.78,78.91v1.674h1V96.32H196.5V92.971h-1.339v1.339h-5.023V78.91Z" transform="translate(-185.78 -78.91)"/></g><g transform="translate(143.158 37.063)"><path d="M237.579,94.926,231.552,78.91h-1.674L222.51,96.32h4.018V94.926h-.67l1.674-4.873h5.358L234.9,96.32h4.018V94.926Zm-9.373-6.615,2.009-5.224,2.009,5.224Z" transform="translate(-222.51 -78.91)"/></g><g transform="translate(155.551 37.063)"><path d="M261.37,78.91h4.015l3.684,12.722,3.684-11.382h-1.339V78.91H275.1l4.35,12.722,3.684-11.382h-1.34V78.91h4.018l-5.693,17.41h-2.341l-4.018-12.052L269.739,96.32h-2.344l-5.02-16.071h-1Z" transform="translate(-261.37 -78.91)"/></g></g></svg>