<svg xmlns="http://www.w3.org/2000/svg" width="129.892" height="32.549" viewBox="0 0 129.892 32.549"><defs><style>.a{opacity:0.45;}</style></defs><g class="a" transform="translate(-117.9 -47.9)"><path d="M197,57.174a10.791,10.791,0,0,0-5.394,1.333c0-4.788,0-9.092.121-10.607l-10,1.818v.909l1.03.121c1.333.3,1.818,1.03,2.061,2.849.3,3.576.121,22.669,0,25.821a38.067,38.067,0,0,0,8.364,1.03c7.94,0,12.668-4.91,12.668-12.668.061-6.122-3.758-10.607-8.849-10.607Zm-3.455,21.639a7.737,7.737,0,0,1-1.758-.121c-.121-2.061-.3-10.91-.121-18.669a6.589,6.589,0,0,1,2.243-.424c3.273,0,5.091,3.879,5.091,8.668-.061,5.879-2.3,10.547-5.455,10.547Zm-49.4-30.306H117.9V49.84l1.515.121c1.94.3,2.667,1.515,2.97,4.3a177.819,177.819,0,0,1,0,19.7c-.3,2.849-1.03,4.182-2.97,4.3l-1.515.3v1.212h16.85V78.57l-1.758-.3c-1.94-.121-2.667-1.515-2.97-4.3-.121-1.94-.3-5.091-.3-8.971l3.576.121c2.243,0,3.273,1.758,3.7,4.3h1.333V58.931h-1.333c-.424,2.546-1.515,4.3-3.7,4.3l-3.576.121c0-5.091.121-9.819.3-12.668h5.213c4,0,6.122,2.546,7.637,7.031l1.515-.424-.242-8.789Z"/><path d="M167.738,62.65c7.455,0,11.213,5.091,11.213,11.819,0,6.425-4.182,11.759-11.638,11.759S156.1,81.137,156.1,74.47c0-6.485,4.182-11.819,11.638-11.819Zm-.485,1.455c-3.273,0-4.182,4.485-4.182,10.3,0,5.637,1.515,10.3,4.485,10.3,3.455,0,4.3-4.485,4.3-10.3C171.92,68.772,170.4,64.105,167.253,64.105Zm55.7,10.486c0-6.122,3.879-11.941,11.516-11.941,6.243,0,9.274,4.607,9.274,10.728h-13.88c-.121,5.516,2.546,9.577,7.88,9.577a7.883,7.883,0,0,0,5.091-1.637l.606.727a11.331,11.331,0,0,1-8.971,4.182c-6.789,0-11.516-4.788-11.516-11.638Zm6.849-2.849,7.031-.121c0-2.97-.424-7.455-2.97-7.455C231.259,64.105,229.926,68.287,229.8,71.742Zm31.64-7.88a18.718,18.718,0,0,0-6.849-1.212c-5.516,0-8.971,3.273-8.971,7.152s2.546,5.516,6.122,6.728c3.7,1.333,4.788,2.364,4.788,4.182a3.442,3.442,0,0,1-3.7,3.455c-2.849,0-4.91-1.637-6.546-6.122l-1.03.3.121,6.546a24.238,24.238,0,0,0,7.88,1.333c5.819,0,9.577-2.97,9.577-7.637,0-3.152-1.637-4.91-5.516-6.425-4.182-1.637-5.7-2.667-5.7-4.607a3.089,3.089,0,0,1,3.152-3.273c2.667,0,4.485,1.637,5.819,5.637l1.03-.3-.182-5.758Zm-63.158-.606c-2.546-1.515-7.031-.727-9.395,4.607l.121-5.213-9.94,1.94V65.5l1.03.121c1.333.121,1.94.909,2.061,2.849.3,3.576.121,9.819,0,12.971-.121,1.758-.727,2.667-2.061,2.849l-1.03.121v1.212h13.88V84.41l-1.758-.121c-1.515-.121-1.94-1.03-2.061-2.849a98.434,98.434,0,0,1-.121-12.062c.727-1.03,4-1.94,7.031,0l2.243-6.122Z" transform="translate(-15.046 -5.78)"/></g></svg>