<svg xmlns="http://www.w3.org/2000/svg" width="135.602" height="15.859" viewBox="0 0 135.602 15.859"><defs><style>.a{opacity:0.45;}.b{fill:#444;}</style></defs><g class="a" transform="translate(17.191 -686.967)"><g transform="translate(-17.191 686.967)"><path d="M85.706,520.345h4.952l2.656-15.195H88.362l-.978,5.444H83.09l.978-5.444H79.116L76.46,520.345h4.952l1-5.688H86.7Z" transform="translate(-68.175 -504.806)"/><path d="M132.545,505.057l-1.506,8.456a9.69,9.69,0,0,0-.188,1.9c0,4.482,3.918,5.16,6.27,5.16,4.935,0,7.062-1.638,7.832-6.065l1.658-9.47h-4.952l-1.414,7.948c-.453,2.484-.773,3.786-2.616,3.786-1.206,0-1.79-.641-1.79-1.959a10.386,10.386,0,0,1,.225-1.9l1.43-7.872h-4.952v.016Z" transform="translate(-104.599 -504.733)"/><path d="M257.8,520.3h4.952l.7-3.918h2.335c4.311,0,6.7-2.335,6.7-6.59,0-2.993-2.071-4.707-5.7-4.707h-6.326Zm7.72-7.664h-1.43l.661-3.577h1.338c1.093,0,1.675.545,1.675,1.543A1.982,1.982,0,0,1,265.52,512.641Z" transform="translate(-189.614 -504.766)"/><path d="M313.955,504.12c-5.384,0-8.6,3.485-8.6,9.342,0,4.066,2.56,6.514,6.854,6.514,5.384,0,8.6-3.485,8.6-9.342.02-4.086-2.543-6.514-6.854-6.514Zm-1.45,11.918c-1.282,0-2.035-.922-2.035-2.467a8.447,8.447,0,0,1,.168-1.675c.377-2,1.017-3.822,3.032-3.822,1.282,0,2.035.922,2.035,2.467a8.447,8.447,0,0,1-.168,1.675C315.161,514.195,314.52,516.038,312.5,516.038Z" transform="translate(-221.457 -504.117)"/><path d="M400.185,520.345h4.952l1.959-11.129h3.729l.717-4.066H398.867l-.717,4.066H402.1Z" transform="translate(-283.603 -504.806)"/><path d="M361.63,510.062c-1.562-.489-2.2-.7-2.2-1.43,0-.489.32-1.074,1.262-1.074a1.582,1.582,0,0,1,1.506.978l4.37-1.186c-.509-2.147-2.355-3.24-5.536-3.24-5.989,0-6.458,4.01-6.458,5.236,0,2.484,1.318,4.01,4.182,4.8.753.208,1.619.433,1.619,1.262,0,.661-.489,1.074-1.338,1.074a2,2,0,0,1-1.883-1.242l-4.311,1.166c.472,2.259,2.6,3.541,5.933,3.541,2.543,0,6.8-.677,6.8-5.272.017-2.3-1.285-3.805-3.941-4.615Z" transform="translate(-253.26 -504.11)"/><path class="b" d="M56.9,520.345l2.676-15.195H51.38v15.195Z" transform="translate(-51.38 -504.806)"/><path class="b" d="M439.746,505.15l-2.656,15.195h8.192V505.15Z" transform="translate(-309.68 -504.806)"/><path d="M184.814,515.822h4.162l.677-3.822h-4.162l.472-2.824h5.817l.717-4.086H181.726L179.07,520.3h4.955Z" transform="translate(-136.891 -504.766)"/><path d="M224.135,515.822h4.182l.677-3.822h-4.162l.469-2.824h5.82l.717-4.086H221.066L218.41,520.3h4.952Z" transform="translate(-163.236 -504.766)"/></g></g></svg>