<svg xmlns="http://www.w3.org/2000/svg" width="181.262" height="25.929" viewBox="0 0 181.262 25.929"><defs><style>.a{opacity:0.45;}.b{fill:#444;}</style></defs><g class="a" transform="translate(-25 -46.21)"><g transform="translate(25 46.21)"><path class="b" d="M50.579,46.21H25v8.467h8.467V72.139h8.642V54.677h8.467V46.21Zm8.467,0H76.158v8.467H59.046V46.21Zm0,17.014V54.677H50.579V72.139H76.158V63.233Z" transform="translate(-25 -46.21)"/></g><path class="b" d="M169.35,60.078V72.6h-3.338V60.078H161v-2.5h12.527v2.5Zm13.559,7.515h-6.946a2.4,2.4,0,0,0,2.391,2.436,2.54,2.54,0,0,0,1.992-.7l2.167,1.875a5.452,5.452,0,0,1-4.159,1.911c-3.343,0-5.465-2.351-5.465-6.026,0-3.563,2.234-6.053,5.178-6.053,3.1,0,4.891,2.5,4.891,5.819a3.028,3.028,0,0,1-.049.731Zm-5-3.751c-1.108,0-1.79.408-1.9,2.082h3.984c-.09-1.674-.709-2.082-2.082-2.082Zm12.325,9.306c-3.033,0-5.442-2.477-5.442-6.039s2.347-6.062,5.573-6.062a5.228,5.228,0,0,1,4.6,2.566L192.95,65.65a3.134,3.134,0,0,0-2.656-1.66c-1.463,0-2.409,1.216-2.409,3.118,0,1.858.951,3.1,2.409,3.1a3.343,3.343,0,0,0,2.741-1.481l1.947,1.835a5.532,5.532,0,0,1-4.752,2.584Zm13.774-.547V66.624c0-2.077-.4-2.7-1.66-2.7s-1.683.619-1.683,2.634V72.6h-3.338v-14.3l3.338-1.526v5.29c0-.552,1.337-1.019,2.553-1.019,2.966,0,4.123,2.037,4.123,5.308V72.6l-3.334,0Z" transform="translate(-74.98 -5.827)"/><path d="M279.6,61.931a2.936,2.936,0,0,0-2.831-1.683c-2.324,0-3.648,2.037-3.648,4.913,0,2.786,1.351,4.913,3.67,4.913a3.245,3.245,0,0,0,3.033-1.97l2.611,1.548a5.919,5.919,0,0,1-5.73,3.5c-4.047,0-6.771-3.1-6.771-7.986,0-4.711,2.831-7.986,6.878-7.986a5.843,5.843,0,0,1,5.662,3.428L279.6,61.931Zm11.37,2.921a2.381,2.381,0,0,0-1.665-.754c-1.193,0-1.862.511-1.862,2.522V72.6h-3.338V60.912h3.338v1.153c.835-.552,1.2-1.019,2.284-1.019a2.832,2.832,0,0,1,2.091.817Zm9.835,7.646v-.363a3.968,3.968,0,0,1-2.553,1.019c-2.966,0-4.123-2.037-4.123-5.308V60.912h2.5v6.663c0,2.082.817,2.7,2.077,2.7s2.1-.619,2.1-2.634v-6.73h3.338V72.6h-3.473l.13-.108Zm12.105.1V66.624c0-2.077-.188-2.7-1.449-2.7s-1.472.619-1.472,2.634V72.6h-3.338V60.912h3.338v1.153c0-.552,1.131-1.019,2.347-1.019,2.966,0,3.917,2.037,3.917,5.308V72.6Zm11.419.547c-3.033,0-5.442-2.477-5.442-6.039s2.347-6.062,5.573-6.062a5.228,5.228,0,0,1,4.6,2.566l-2.01,2.037a3.134,3.134,0,0,0-2.656-1.66c-1.463,0-2.414,1.216-2.414,3.118,0,1.858.951,3.1,2.414,3.1a3.343,3.343,0,0,0,2.741-1.481l1.947,1.835a5.534,5.534,0,0,1-4.756,2.584Zm13.635-.242V66.624c0-2.077-.4-2.7-1.66-2.7s-1.683.619-1.683,2.634V72.6h-3.338v-14.3l3.338-1.526v5.29c0-.552,1.337-1.019,2.553-1.019,2.966,0,4.123,2.037,4.123,5.308V72.6h-3.262l-.072.3Z" transform="translate(-135.04 -5.827)"/></g></svg>